<?xml version="1.0" encoding="UTF-8" standalone="no"?>
<!DOCTYPE svg PUBLIC "-//W3C//DTD SVG 1.1//EN" "http://www.w3.org/Graphics/SVG/1.1/DTD/svg11.dtd">
<svg width="100%" height="100%" viewBox="0 0 1080 1080" version="1.1" xmlns="http://www.w3.org/2000/svg" xmlns:xlink="http://www.w3.org/1999/xlink" xml:space="preserve" xmlns:serif="http://www.serif.com/" style="fill-rule:evenodd;clip-rule:evenodd;stroke-linejoin:round;stroke-miterlimit:2;">
    <g transform="matrix(1,0,0,1,8.39718,22.8833)">
        <g transform="matrix(5.20152,0,0,5.20152,-2533.07,-70.5193)">
            <path d="M683.808,142.842C682.001,147.672 677.524,149.479 648.05,164.45C653.629,165.921 661.07,171.291 671.623,163.877C679.813,158.123 687.697,147.493 688.413,136.264C680.529,144.261 669.159,138.815 660.905,142.056C660.581,142.183 648.652,147.107 647.655,162.764C674.731,145.893 677.807,148.168 683.808,142.842Z" style="fill:rgb(247,148,92);fill-rule:nonzero;"/>
        </g>
        <g transform="matrix(5.20152,0,0,5.20152,-2533.07,-70.5193)">
            <path d="M494.568,142.842C496.375,147.672 500.852,149.479 530.326,164.45C524.747,165.921 517.306,171.291 506.753,163.877C498.562,158.123 490.679,147.493 489.963,136.264C497.847,144.261 509.217,138.815 517.471,142.056C517.794,142.183 529.724,147.107 530.722,162.764C503.645,145.893 500.569,148.168 494.568,142.842Z" style="fill:rgb(247,148,92);fill-rule:nonzero;"/>
        </g>
        <g transform="matrix(5.20152,0,0,5.20152,-2533.07,-70.5193)">
            <path d="M646.362,76.302C643.539,61.015 628.466,49.31 610.351,49.31C602.401,49.31 594.896,51.539 588.747,55.548C582.952,49.532 574.342,45.841 564.89,45.841C547.609,45.841 533.551,58.242 533.551,73.485C533.551,74.344 533.596,75.198 533.685,76.045C518.556,77.997 506.902,89.52 506.902,103.398C506.902,118.642 520.961,131.043 538.242,131.043L541.428,131.043L541.428,168.257C541.428,174.802 546.733,180.107 553.278,180.107L625.098,180.107C631.643,180.107 636.948,174.802 636.948,168.257L636.948,131.043L640.134,131.043C657.415,131.043 671.474,118.642 671.474,103.398C671.474,90.036 660.67,78.857 646.362,76.302Z" style="fill:rgb(46,45,41);fill-rule:nonzero;"/>
            <clipPath id="_clip1">
                <path d="M646.362,76.302C643.539,61.015 628.466,49.31 610.351,49.31C602.401,49.31 594.896,51.539 588.747,55.548C582.952,49.532 574.342,45.841 564.89,45.841C547.609,45.841 533.551,58.242 533.551,73.485C533.551,74.344 533.596,75.198 533.685,76.045C518.556,77.997 506.902,89.52 506.902,103.398C506.902,118.642 520.961,131.043 538.242,131.043L541.428,131.043L541.428,168.257C541.428,174.802 546.733,180.107 553.278,180.107L625.098,180.107C631.643,180.107 636.948,174.802 636.948,168.257L636.948,131.043L640.134,131.043C657.415,131.043 671.474,118.642 671.474,103.398C671.474,90.036 660.67,78.857 646.362,76.302Z" clip-rule="nonzero"/>
            </clipPath>
            <g clip-path="url(#_clip1)">
                <path d="M575.268,92.573C574.715,92.573 574.268,92.895 574.268,93.292L574.268,118.059C574.268,118.794 573.439,119.391 572.417,119.391C571.395,119.391 570.566,118.794 570.566,118.059L570.566,93.292C570.566,92.895 570.119,92.573 569.566,92.573C569.014,92.573 568.566,92.895 568.566,93.292L568.566,118.059C568.566,118.794 567.738,119.391 566.716,119.391C565.693,119.391 564.865,118.794 564.865,118.059L564.865,93.292C564.865,92.895 564.418,92.573 563.865,92.573C563.312,92.573 562.865,92.895 562.865,93.292L562.865,118.059C562.865,118.794 562.036,119.391 561.015,119.391C559.992,119.391 559.163,118.794 559.163,118.059L559.163,93.292C559.163,92.895 558.716,92.573 558.163,92.573C557.611,92.573 557.164,92.895 557.164,93.292L557.164,126.997C557.164,128.029 557.731,129.02 558.742,129.753L559.966,130.641C562.653,132.59 564.109,135.247 563.994,137.991L561.404,199.423C561.314,201.578 563.719,203.36 566.716,203.36C569.713,203.36 572.117,201.578 572.027,199.423L569.437,137.992C569.322,135.248 570.778,132.59 573.465,130.641L574.69,129.753C575.7,129.02 576.268,128.029 576.268,126.997L576.268,93.292C576.268,92.895 575.82,92.573 575.268,92.573Z" style="fill:rgb(247,148,92);fill-rule:nonzero;"/>
                <path d="M621.213,118.833C621.213,105.987 613.389,92.573 603.736,92.573C594.085,92.573 586.261,105.987 586.261,118.833C586.261,128.325 590.536,134.844 596.662,137.603C598.914,138.616 600.386,140.823 600.282,143.291L597.915,199.423C597.826,201.578 600.23,203.36 603.227,203.36C606.225,203.36 608.629,201.578 608.539,199.423L606.189,143.699C606.081,141.118 607.694,138.844 610.098,137.897C616.602,135.336 621.213,128.689 621.213,118.833Z" style="fill:rgb(247,148,92);fill-rule:nonzero;"/>
            </g>
        </g>
    </g>
</svg>
